<svg
        width="150"
        height="70"
        viewBox="0 0 150 70"
        fill="none"
        xmlns="http://www.w3.org/2000/svg"
      >
        <g clip-path="url(#clip0_659_506)">
          <path
            d="M61.9742 85.9094L25.3156 67.8007C23.367 66.8421 23.6105 65.1646 25.8636 64.0498L61.4262 46.4829C62.5835 45.9358 63.8736 45.6266 65.1947 45.5795C66.5158 45.5325 67.8316 45.749 69.038 46.212L105.684 64.3207C107.633 65.2792 107.389 66.9672 105.136 68.0716L69.586 85.6385C68.4287 86.1855 67.1385 86.4948 65.8175 86.5418C64.4964 86.5888 63.1806 86.3723 61.9742 85.9094Z"
            fill="#BFA5F3"
            stroke="#212529"
            stroke-width="0.5"
            stroke-miterlimit="10"
            stroke-linecap="round"
          />
          <path
            d="M61.9742 70.343L25.3156 52.2343C23.367 51.2757 23.6105 49.5982 25.8636 48.4834L61.4262 30.9165C62.5835 30.3694 63.8736 30.0602 65.1947 30.0131C66.5158 29.9661 67.8316 30.1826 69.038 30.6456L105.684 48.7543C107.633 49.7128 107.389 51.4008 105.136 52.5052L69.586 70.0721C68.4287 70.6191 67.1385 70.9284 65.8175 70.9754C64.4964 71.0224 63.1806 70.8059 61.9742 70.343Z"
            stroke="#6D757D"
            stroke-width="0.5"
            stroke-miterlimit="10"
            stroke-linecap="round"
          />
          <path
            d="M61.9742 53.9325L25.3156 35.8238C23.367 34.8652 23.6105 33.1773 25.8636 32.0729L61.4262 14.4956C62.5835 13.9485 63.8736 13.6393 65.1947 13.5922C66.5158 13.5452 67.8316 13.7617 69.038 14.2247L105.684 32.3334C107.633 33.2919 107.389 34.9799 105.136 36.0843L69.586 53.6616C68.4287 54.2087 67.1385 54.5179 65.8175 54.5649C64.4964 54.612 63.1806 54.3954 61.9742 53.9325Z"
            stroke="#6D757D"
            stroke-width="0.5"
            stroke-miterlimit="10"
            stroke-linecap="round"
          />
          <path
            d="M61.9741 41.3356L25.3277 23.2373C23.3669 22.2683 23.6105 20.5908 25.8636 19.476L61.4261 1.9195C62.5809 1.36617 63.8718 1.0533 65.1942 1.00623C66.5166 0.959167 67.8334 1.17923 69.038 1.6486L105.684 19.7052C107.633 20.6742 107.389 22.3517 105.136 23.4666L69.586 41.0751C68.4277 41.6205 67.137 41.928 65.816 41.9732C64.4949 42.0184 63.1796 41.8001 61.9741 41.3356Z"
            stroke="#7b3ff2"
            stroke-width="0.5"
            stroke-miterlimit="10"
            stroke-linecap="round"
            stroke-linejoin="round"
            stroke-dasharray="2.24 2.24"
          />
        </g>
        <defs>
          <clipPath id="clip0_659_506">
            <rect width="150" height="70" fill="white" />
          </clipPath>
        </defs>
      </svg>