<svg width="150" height="71" viewBox="0 0 150 71" fill="none" xmlns="http://www.w3.org/2000/svg">
        <path d="M48.0987 87.1588L115.231 126.687C115.912 127.087 116.688 127.301 117.478 127.306C118.269 127.312 119.047 127.108 119.733 126.717C120.42 126.325 120.991 125.759 121.389 125.076C121.787 124.393 121.998 123.617 122 122.826V47.0513C122 45.7561 121.657 44.484 121.006 43.3641C120.356 42.2443 119.42 41.3167 118.295 40.6755L49.7651 1.50991C49.1787 1.17373 48.5141 0.997876 47.8381 1.00002C47.1621 1.00216 46.4986 1.18223 45.9143 1.52212C45.33 1.862 44.8455 2.34972 44.5095 2.93625C44.1734 3.52278 43.9977 4.18744 44 4.86341L44.2898 80.5346C44.2985 81.8736 44.6539 83.1877 45.3215 84.3485C45.989 85.5094 46.9458 86.4776 48.0987 87.1588Z" fill="white" stroke="#212529" stroke-width="0.5" stroke-miterlimit="10" stroke-linecap="round"/>
        <path d="M115.173 51.1829C116.202 50.63 116.35 48.9036 115.502 47.3268C114.655 45.75 113.134 44.9199 112.105 45.4728C111.076 46.0257 110.929 47.7521 111.776 49.3289C112.624 50.9057 114.144 51.7358 115.173 51.1829Z" fill="#BFA5F3" stroke="#212529" stroke-width="0.5" stroke-miterlimit="10" stroke-linecap="round"/>
        <path d="M60.1078 44.1826L54.4541 41.2999C53.4874 40.807 52.6794 40.0741 52.1161 39.1791C51.5529 38.284 51.2556 37.2605 51.2559 36.2175V26.3229C51.2556 25.8652 51.3802 25.4153 51.6174 25.017C51.8546 24.6188 52.1964 24.2858 52.6094 24.0506C53.0223 23.8154 53.4923 23.686 53.9736 23.6751C54.4548 23.6641 54.9308 23.772 55.3551 23.9882L61.4106 27.0754C62.4535 27.6064 63.3252 28.3965 63.9328 29.3616C64.5404 30.3267 64.861 31.4305 64.8605 32.5553V41.4813C64.8544 42.0095 64.7059 42.5274 64.4291 42.9855C64.1524 43.4435 63.7566 43.8264 63.2798 44.0974C62.8029 44.3685 62.2608 44.5186 61.7055 44.5336C61.1501 44.5485 60.6 44.4276 60.1078 44.1826Z" stroke="#212529" stroke-width="0.5" stroke-linecap="round" stroke-linejoin="round" stroke-dasharray="2.24 2.24"/>
        <path d="M78.2475 54.1594L72.5937 51.2767C71.627 50.7839 70.819 50.0509 70.2558 49.1559C69.6926 48.2609 69.3953 47.2373 69.3955 46.1943V36.2997C69.3953 35.842 69.5198 35.3921 69.7571 34.9938C69.9943 34.5956 70.3361 34.2626 70.749 34.0274C71.162 33.7922 71.632 33.6628 72.1132 33.6519C72.5945 33.6409 73.0705 33.7488 73.4948 33.965L79.5503 37.0522C80.5931 37.5832 81.4649 38.3734 82.0724 39.3384C82.68 40.3035 83.0006 41.4073 83.0002 42.5321V51.4581C82.9941 51.9863 82.8456 52.5042 82.5688 52.9623C82.292 53.4203 81.8963 53.8032 81.4194 54.0742C80.9425 54.3453 80.4005 54.4954 79.8451 54.5104C79.2898 54.5253 78.7397 54.4045 78.2475 54.1594Z" stroke="#212529" stroke-width="0.5" stroke-linecap="round" stroke-linejoin="round" stroke-dasharray="2.24 2.24"/>
        <path d="M106.146 90.0405L94.8383 83.8991C92.9049 82.849 91.2889 81.2875 90.1625 79.3807C89.036 77.4739 88.4414 75.2934 88.4419 73.0714V51.9916C88.4414 51.0165 88.6906 50.0579 89.165 49.2094C89.6395 48.361 90.323 47.6516 91.1489 47.1505C91.9748 46.6494 92.9149 46.3738 93.8773 46.3505C94.8398 46.3272 95.7918 46.557 96.6404 47.0176L108.751 53.5947C110.837 54.7259 112.581 56.4093 113.796 58.4653C115.011 60.5214 115.652 62.873 115.651 65.2692V84.2855C115.639 85.4108 115.342 86.5142 114.788 87.49C114.235 88.4659 113.443 89.2815 112.49 89.859C111.536 90.4364 110.452 90.7563 109.341 90.7881C108.23 90.8199 107.13 90.5625 106.146 90.0405Z" fill="#BFA5F3" stroke="#212529" stroke-width="0.5" stroke-linecap="round" stroke-linejoin="round"/>
        <path d="M57.4561 61.7919C59.1279 60.8936 59.3667 58.0876 57.9895 55.5246C56.6123 52.9615 54.1407 51.612 52.4689 52.5102C50.7971 53.4085 50.5583 56.2145 51.9355 58.7775C53.3127 61.3406 55.7843 62.6901 57.4561 61.7919Z" fill="#7b3ff2" stroke="#212529" stroke-width="0.5" stroke-linecap="round" stroke-linejoin="round"/>
        <path d="M59.4072 59.0466L96.7722 81.3843" stroke="#212529" stroke-width="0.5" stroke-linecap="round" stroke-linejoin="round" stroke-dasharray="3 3"/>
      </svg>