<svg xmlns="http://www.w3.org/2000/svg" xmlns:xlink="http://www.w3.org/1999/xlink" width="500" zoomAndPan="magnify" viewBox="0 0 375 374.999991" height="500" preserveAspectRatio="xMidYMid meet" version="1.0"><defs><clipPath id="79a89b469a"><path d="M 74.964844 57.527344 L 299.964844 57.527344 L 299.964844 317.777344 L 74.964844 317.777344 Z M 74.964844 57.527344 " clip-rule="nonzero"/></clipPath></defs><rect x="-37.5" width="450" y="-37.499999" height="449.999989" fill-opacity="0"/><rect x="-37.5" width="450" y="-37.499999" height="449.999989" fill-opacity="0"/><g clip-path="url(#79a89b469a)"><path fill="#5e17eb" d="M 249.628906 194.265625 L 224.429688 208.851562 L 199.230469 223.382812 L 199.230469 194.265625 L 224.429688 179.730469 L 249.628906 165.199219 L 274.828125 150.613281 L 274.828125 237.917969 L 187.519531 288.367188 L 150.5625 267.035156 L 150.5625 166.191406 L 171.996094 153.800781 L 175.757812 151.605469 L 187.519531 144.863281 L 199.230469 138.066406 L 212.71875 130.328125 L 237.917969 115.742188 L 263.117188 101.210938 L 243.773438 90.023438 L 237.917969 86.675781 L 187.519531 57.558594 L 131.21875 90.023438 L 74.964844 122.539062 L 74.964844 252.503906 L 100.164062 267.035156 L 100.164062 137.074219 L 187.519531 86.675781 L 212.71875 101.210938 L 199.230469 109 L 187.519531 115.742188 L 175.757812 122.539062 L 159.394531 132 L 125.363281 151.605469 L 125.363281 281.570312 L 131.21875 284.96875 L 150.5625 296.15625 L 187.519531 317.433594 L 243.773438 284.96875 L 300.023438 252.503906 L 300.023438 122.539062 L 288.3125 115.742188 L 263.117188 130.328125 L 237.917969 144.863281 L 212.71875 159.394531 L 199.230469 167.183594 L 187.519531 173.929688 L 175.757812 180.726562 L 175.757812 252.503906 L 187.519531 259.246094 L 199.230469 252.503906 L 249.628906 223.382812 Z M 249.628906 194.265625 " fill-opacity="1" fill-rule="evenodd"/></g></svg>